<?xml version="1.0" encoding="UTF-8"?>
<svg xmlns="http://www.w3.org/2000/svg" xmlns:xlink="http://www.w3.org/1999/xlink" width="343pt" height="173pt" viewBox="0 0 343 173" version="1.1">
<g id="surface1">
<rect x="0" y="0" width="343" height="173" style="fill:rgb(100%,100%,100%);fill-opacity:1;stroke:none;"/>
<path style=" stroke:none;fill-rule:nonzero;fill:rgb(20.399475%,24.299622%,48.999023%);fill-opacity:1;" d="M 25.316406 25 L 25.316406 101.84375 C 25.316406 72.351563 49.226563 48.441406 78.71875 48.441406 C 108.214844 48.441406 132.125 72.351563 132.125 101.84375 L 132.125 25 L 25.316406 25 "/>
<path style=" stroke:none;fill-rule:nonzero;fill:rgb(51.799011%,36.499023%,62.69989%);fill-opacity:1;" d="M 78.71875 48.441406 C 49.226563 48.441406 25.316406 72.351563 25.316406 101.84375 C 25.316406 109.953125 27.128906 117.628906 30.363281 124.511719 C 38.890625 142.671875 57.332031 155.25 78.71875 155.25 C 100.109375 155.25 118.550781 142.671875 127.078125 124.511719 C 130.3125 117.628906 132.125 109.953125 132.125 101.84375 C 132.125 72.351563 108.214844 48.441406 78.71875 48.441406 "/>
<path style=" stroke:none;fill-rule:nonzero;fill:rgb(90.59906%,72.198486%,25.498962%);fill-opacity:1;" d="M 111.179688 40.183594 L 79.1875 29.277344 L 79.1875 29.128906 L 78.964844 29.203125 L 78.746094 29.128906 L 78.742188 29.277344 L 46.753906 40.183594 L 78.964844 50.679688 L 111.179688 40.183594 "/>
<path style=" stroke:none;fill-rule:nonzero;fill:rgb(90.59906%,72.198486%,25.498962%);fill-opacity:1;" d="M 111.03125 44.753906 L 78.964844 55.347656 L 46.902344 44.753906 L 78.964844 60.785156 L 111.03125 44.753906 "/>
<path style=" stroke:none;fill-rule:nonzero;fill:rgb(90.59906%,72.198486%,25.498962%);fill-opacity:1;" d="M 111.03125 51.390625 L 78.964844 61.980469 L 46.902344 51.390625 L 78.964844 67.421875 L 111.03125 51.390625 "/>
<path style=" stroke:none;fill-rule:nonzero;fill:rgb(90.59906%,72.198486%,25.498962%);fill-opacity:1;" d="M 111.03125 58.171875 L 78.964844 68.761719 L 46.902344 58.171875 L 78.964844 74.203125 L 111.03125 58.171875 "/>
<path style=" stroke:none;fill-rule:nonzero;fill:rgb(90.59906%,72.198486%,25.498962%);fill-opacity:1;" d="M 111.03125 65.101563 L 78.964844 75.691406 L 46.902344 65.101563 L 78.964844 81.132813 L 111.03125 65.101563 "/>
<path style=" stroke:none;fill-rule:nonzero;fill:rgb(90.59906%,72.198486%,25.498962%);fill-opacity:1;" d="M 111.03125 71.585938 L 78.964844 82.175781 L 46.902344 71.585938 L 78.964844 87.617188 L 111.03125 71.585938 "/>
<path style=" stroke:none;fill-rule:nonzero;fill:rgb(90.59906%,72.198486%,25.498962%);fill-opacity:1;" d="M 111.03125 77.1875 L 78.96875 89.917969 L 46.902344 77.1875 L 46.902344 83.824219 L 78.964844 95.683594 L 111.03125 83.824219 L 111.03125 77.1875 "/>
<path style=" stroke:none;fill-rule:nonzero;fill:rgb(90.59906%,72.198486%,25.498962%);fill-opacity:1;" d="M 78.5 107.925781 L 78.5 120.753906 L 90.21875 114.117188 Z M 78.5 107.925781 "/>
<path style=" stroke:none;fill-rule:nonzero;fill:rgb(99.598694%,99.198914%,99.198914%);fill-opacity:1;" d="M 94.066406 116.703125 L 124.867188 131.886719 L 127.738281 126.066406 L 102.394531 113.574219 C 106.03125 112.796875 109.753906 115.222656 109.753906 115.222656 L 106.25 109.917969 L 107.835938 109.917969 L 107.984375 108.445313 C 107.984375 108.445313 108.867188 109.03125 110.488281 107.261719 C 112.109375 105.492188 112.257813 105.789063 114.175781 106.820313 C 116.09375 107.851563 119.480469 113.160156 119.480469 113.160156 L 123.464844 109.328125 L 121.839844 106.96875 L 122.28125 104.757813 C 122.28125 104.757813 120.808594 104.167969 118.597656 102.546875 C 116.386719 100.925781 114.027344 100.335938 111.667969 100.335938 C 109.308594 100.335938 103.5625 102.839844 103.5625 102.839844 L 102.894531 104.832031 L 100.316406 100.925781 C 99.726563 102.105469 98.402344 105.640625 98.402344 105.640625 L 97.367188 104.167969 C 97.273438 105.414063 95.425781 107.722656 93.742188 109.304688 L 86.308594 105.640625 L 114.121094 91.929688 L 99.4375 91.929688 L 78.964844 102.023438 L 58.492188 91.929688 L 43.808594 91.929688 L 71.625 105.640625 L 64.191406 109.304688 C 62.507813 107.722656 60.660156 105.414063 60.5625 104.167969 L 59.53125 105.640625 C 59.53125 105.640625 58.203125 102.105469 57.613281 100.925781 L 55.035156 104.832031 L 54.371094 102.839844 C 54.371094 102.839844 48.621094 100.335938 46.261719 100.335938 C 43.90625 100.335938 41.542969 100.925781 39.332031 102.546875 C 37.121094 104.167969 35.648438 104.757813 35.648438 104.757813 L 36.089844 106.96875 L 34.46875 109.328125 L 38.449219 113.160156 C 38.449219 113.160156 41.839844 107.851563 43.757813 106.820313 C 45.671875 105.789063 45.820313 105.492188 47.441406 107.261719 C 49.0625 109.03125 49.949219 108.445313 49.949219 108.445313 L 50.09375 109.917969 L 51.683594 109.917969 L 48.179688 115.222656 C 48.179688 115.222656 51.902344 112.796875 55.535156 113.574219 L 30.195313 126.066406 L 33.0625 131.886719 L 63.863281 116.703125 C 66.082031 117.714844 67.917969 118.664063 68.378906 119.058594 C 68.828125 119.445313 70.011719 120.421875 71.683594 121.453125 C 69.355469 122.726563 67.148438 124.21875 67.148438 124.21875 C 67.148438 124.21875 64.050781 127.609375 58.152344 129.96875 C 52.257813 132.328125 45.03125 139.84375 45.03125 139.84375 C 45.03125 139.84375 47.6875 139.105469 55.207031 136.601563 C 62.722656 134.09375 65.378906 131 68.179688 129.082031 C 70.976563 127.164063 72.160156 125.101563 77.90625 124.511719 C 78.265625 124.476563 78.617188 124.425781 78.964844 124.363281 C 79.316406 124.425781 79.667969 124.476563 80.023438 124.511719 C 85.773438 125.101563 86.953125 127.164063 89.753906 129.082031 C 92.554688 131 95.207031 134.09375 102.726563 136.601563 C 110.246094 139.105469 112.898438 139.84375 112.898438 139.84375 C 112.898438 139.84375 105.675781 132.328125 99.777344 129.96875 C 93.882813 127.609375 90.785156 124.21875 90.785156 124.21875 C 90.785156 124.21875 88.578125 122.726563 86.25 121.453125 C 87.917969 120.421875 89.105469 119.445313 89.554688 119.058594 C 90.015625 118.664063 91.847656 117.714844 94.066406 116.703125 M 78.964844 109.261719 L 87.234375 113.335938 C 87.234375 113.335938 78.675781 118.8125 78.511719 118.761719 C 78.511719 118.761719 70.414063 113.71875 70.230469 113.566406 L 78.964844 109.261719 "/>
<path style=" stroke:none;fill-rule:nonzero;fill:rgb(71.398926%,72.198486%,72.898865%);fill-opacity:1;" d="M 153.183594 25.691406 L 153.183594 26.726563 C 151.789063 26.726563 150.796875 26.90625 150.203125 27.269531 C 149.660156 27.628906 149.386719 28.238281 149.386719 29.089844 L 149.386719 45.402344 C 149.386719 47.808594 150.203125 49.769531 151.828125 51.296875 C 153.476563 52.84375 155.589844 53.621094 158.171875 53.621094 C 160.441406 53.621094 162.296875 53.039063 163.742188 51.878906 C 165.597656 50.429688 166.527344 48.222656 166.527344 45.246094 L 166.527344 29.089844 C 166.527344 28.210938 166.257813 27.605469 165.714844 27.269531 C 165.144531 26.90625 164.152344 26.726563 162.734375 26.726563 L 162.734375 25.691406 L 171.445313 25.691406 L 171.445313 26.726563 C 169.996094 26.726563 168.992188 26.90625 168.425781 27.269531 C 167.882813 27.605469 167.609375 28.210938 167.609375 29.089844 L 167.609375 45.496094 C 167.609375 48.574219 166.617188 50.941406 164.628906 52.59375 C 162.773438 54.171875 160.207031 54.960938 156.933594 54.960938 C 154.066406 54.960938 151.734375 54.160156 149.929688 52.558594 C 147.917969 50.773438 146.910156 48.253906 146.910156 44.992188 L 146.910156 29.089844 C 146.910156 28.210938 146.652344 27.605469 146.136719 27.269531 C 145.597656 26.90625 144.574219 26.726563 143.078125 26.726563 L 143.078125 25.691406 L 153.183594 25.691406 "/>
<path style=" stroke:none;fill-rule:nonzero;fill:rgb(71.398926%,72.198486%,72.898865%);fill-opacity:1;" d="M 170.367188 53.011719 C 171.261719 53.011719 171.894531 52.863281 172.257813 52.570313 C 172.644531 52.28125 172.835938 51.785156 172.835938 51.09375 L 172.835938 36.128906 C 172.835938 35.417969 172.644531 34.914063 172.257813 34.621094 C 171.875 34.332031 171.242188 34.183594 170.367188 34.183594 L 170.367188 33.488281 L 173.957031 33.488281 L 186.761719 50.414063 L 186.761719 35.746094 C 186.761719 35.199219 186.5625 34.796875 186.160156 34.539063 C 185.761719 34.304688 185.128906 34.183594 184.273438 34.183594 L 184.273438 33.488281 L 190.097656 33.488281 L 190.097656 34.183594 C 189.257813 34.183594 188.625 34.3125 188.203125 34.570313 C 187.804688 34.824219 187.601563 35.21875 187.601563 35.746094 L 187.601563 53.816406 L 187.128906 53.816406 L 173.675781 35.929688 L 173.675781 51.09375 C 173.675781 51.804688 173.847656 52.296875 174.199219 52.570313 C 174.566406 52.863281 175.222656 53.011719 176.160156 53.011719 L 176.160156 53.742188 L 170.367188 53.742188 L 170.367188 53.011719 "/>
<path style=" stroke:none;fill-rule:nonzero;fill:rgb(71.398926%,72.198486%,72.898865%);fill-opacity:1;" d="M 199.171875 33.488281 L 199.171875 34.183594 C 198.203125 34.183594 197.527344 34.3125 197.144531 34.570313 C 196.757813 34.84375 196.566406 35.335938 196.566406 36.046875 L 196.566406 51.367188 C 196.566406 51.953125 196.757813 52.371094 197.144531 52.628906 C 197.546875 52.882813 198.222656 53.011719 199.171875 53.011719 L 199.171875 53.742188 L 192.242188 53.742188 L 192.242188 53.011719 C 193.175781 53.011719 193.84375 52.882813 194.246094 52.628906 C 194.648438 52.371094 194.851563 51.953125 194.851563 51.367188 L 194.851563 36.046875 C 194.851563 35.335938 194.648438 34.84375 194.246094 34.570313 C 193.84375 34.3125 193.175781 34.183594 192.242188 34.183594 L 192.242188 33.488281 L 199.171875 33.488281 "/>
<path style=" stroke:none;fill-rule:nonzero;fill:rgb(71.398926%,72.198486%,72.898865%);fill-opacity:1;" d="M 220.457031 33.488281 L 220.457031 34.222656 C 219.488281 34.222656 218.839844 34.34375 218.507813 34.578125 C 218.160156 34.796875 217.851563 35.339844 217.578125 36.199219 L 211.023438 54.21875 L 210.550781 54.21875 L 203.933594 35.734375 C 203.730469 35.199219 203.476563 34.835938 203.164063 34.632813 C 202.726563 34.359375 202.039063 34.222656 201.109375 34.222656 L 201.109375 33.488281 L 208.238281 33.488281 L 208.238281 34.222656 C 206.992188 34.222656 206.21875 34.296875 205.90625 34.441406 C 205.558594 34.605469 205.484375 34.972656 205.6875 35.535156 L 211.300781 51.054688 L 216.699219 36.113281 C 216.957031 35.363281 216.945313 34.871094 216.671875 34.632813 C 216.359375 34.359375 215.566406 34.222656 214.285156 34.222656 L 214.285156 33.488281 L 220.457031 33.488281 "/>
<path style=" stroke:none;fill-rule:nonzero;fill:rgb(71.398926%,72.198486%,72.898865%);fill-opacity:1;" d="M 222.347656 52.957031 C 223.207031 52.957031 223.828125 52.800781 224.210938 52.488281 C 224.613281 52.195313 224.816406 51.714844 224.816406 51.035156 L 224.816406 35.984375 C 224.816406 35.347656 224.613281 34.878906 224.210938 34.585938 C 223.828125 34.3125 223.207031 34.175781 222.347656 34.175781 L 222.347656 33.488281 L 236.878906 33.488281 L 238.851563 38.289063 L 238.449219 38.5625 L 237.738281 37.628906 C 236.914063 36.515625 236.191406 35.738281 235.570313 35.300781 C 234.492188 34.550781 233.15625 34.175781 231.566406 34.175781 L 228.800781 34.175781 C 228.050781 34.175781 227.503906 34.3125 227.152344 34.585938 C 226.789063 34.878906 226.605469 35.347656 226.605469 35.984375 L 226.605469 42.757813 L 230.84375 42.757813 C 231.863281 42.757813 232.613281 42.503906 233.089844 41.988281 C 233.613281 41.441406 233.882813 40.527344 233.882813 39.246094 L 234.539063 39.246094 L 234.539063 47.117188 L 233.882813 47.117188 C 233.882813 45.890625 233.613281 44.988281 233.089844 44.402344 C 232.574219 43.835938 231.828125 43.550781 230.84375 43.550781 L 226.605469 43.550781 L 226.605469 51.035156 C 226.605469 51.695313 226.789063 52.179688 227.152344 52.488281 C 227.519531 52.800781 228.085938 52.957031 228.851563 52.957031 L 231.453125 52.957031 C 233.0625 52.957031 234.441406 52.609375 235.59375 51.914063 C 236.6875 51.238281 237.8125 50.097656 238.960938 48.488281 L 239.472656 48.761719 L 237.578125 53.667969 L 222.347656 53.667969 L 222.347656 52.957031 "/>
<path style=" stroke:none;fill-rule:nonzero;fill:rgb(71.398926%,72.198486%,72.898865%);fill-opacity:1;" d="M 241.210938 53.011719 C 242.234375 53.011719 242.945313 52.847656 243.347656 52.519531 C 243.730469 52.226563 243.925781 51.722656 243.925781 51.007813 L 243.925781 35.894531 C 243.925781 35.253906 243.730469 34.816406 243.347656 34.578125 C 242.964844 34.339844 242.253906 34.222656 241.210938 34.222656 L 241.210938 33.488281 L 250.339844 33.488281 C 252.441406 33.488281 254.085938 33.957031 255.273438 34.890625 C 256.40625 35.785156 256.976563 36.976563 256.976563 38.460938 C 256.976563 39.867188 256.527344 41.03125 255.632813 41.945313 C 254.660156 42.933594 253.28125 43.484375 251.492188 43.59375 L 256.042969 51.695313 C 256.316406 52.203125 256.683594 52.554688 257.140625 52.734375 C 257.539063 52.921875 258.136719 53.011719 258.921875 53.011719 L 258.921875 53.742188 L 255.109375 53.742188 L 249.570313 43.6875 L 245.679688 43.6875 L 245.679688 51.015625 C 245.679688 51.707031 245.878906 52.210938 246.28125 52.519531 C 246.683594 52.847656 247.378906 53.011719 248.363281 53.011719 L 248.363281 53.742188 L 241.210938 53.742188 L 241.210938 53.011719 M 250.863281 42.957031 C 252.292969 42.957031 253.371094 42.492188 254.105469 41.558594 C 254.726563 40.769531 255.035156 39.746094 255.035156 38.480469 C 255.035156 37.144531 254.605469 36.097656 253.746094 35.347656 C 252.90625 34.597656 251.734375 34.222656 250.234375 34.222656 L 247.738281 34.222656 C 247.023438 34.222656 246.511719 34.34375 246.199219 34.578125 C 245.851563 34.855469 245.679688 35.292969 245.679688 35.898438 L 245.679688 42.957031 L 250.863281 42.957031 "/>
<path style=" stroke:none;fill-rule:nonzero;fill:rgb(71.398926%,72.198486%,72.898865%);fill-opacity:1;" d="M 263.765625 51.824219 C 265.1875 52.902344 266.800781 53.441406 268.589844 53.441406 C 270.125 53.441406 271.3125 53.109375 272.152344 52.453125 C 273.121094 51.703125 273.605469 50.5625 273.605469 49.027344 C 273.605469 47.703125 273.140625 46.695313 272.207031 46.007813 C 271.421875 45.433594 269.878906 44.816406 267.574219 44.164063 C 265.601563 43.558594 264.121094 42.890625 263.132813 42.15625 C 261.761719 41.109375 261.078125 39.769531 261.078125 38.136719 C 261.078125 36.757813 261.507813 35.613281 262.367188 34.695313 C 263.445313 33.574219 265.023438 33.015625 267.109375 33.015625 C 267.65625 33.015625 268.207031 33.070313 268.753906 33.183594 C 269.0625 33.257813 269.476563 33.382813 269.988281 33.550781 C 270.371094 33.664063 270.636719 33.738281 270.78125 33.773438 C 271.019531 33.8125 271.222656 33.800781 271.386719 33.746094 L 272.757813 33.199219 L 274.59375 38.296875 L 274.15625 38.570313 C 273.261719 37.054688 272.265625 35.902344 271.167969 35.117188 C 269.90625 34.203125 268.507813 33.746094 266.972656 33.746094 C 265.710938 33.746094 264.695313 34.039063 263.929688 34.628906 C 263.050781 35.304688 262.613281 36.320313 262.613281 37.679688 C 262.613281 39.019531 263.1875 40.097656 264.339844 40.925781 C 265.179688 41.527344 266.507813 42.097656 268.316406 42.628906 C 270.546875 43.214844 272.164063 43.871094 273.167969 44.601563 C 274.53125 45.570313 275.214844 46.875 275.214844 48.519531 C 275.214844 50.398438 274.566406 51.835938 273.277344 52.820313 C 272.144531 53.714844 270.617188 54.160156 268.699219 54.160156 C 268.132813 54.160156 267.519531 54.089844 266.863281 53.941406 C 266.496094 53.851563 266.003906 53.714844 265.382813 53.53125 C 265.070313 53.441406 264.851563 53.378906 264.722656 53.339844 C 264.523438 53.304688 264.378906 53.285156 264.285156 53.285156 C 263.976563 53.285156 263.628906 53.367188 263.242188 53.53125 C 262.878906 53.679688 262.539063 53.871094 262.230469 54.105469 L 260.253906 48.753906 L 260.832031 48.476563 C 261.742188 49.921875 262.722656 51.035156 263.765625 51.824219 "/>
<path style=" stroke:none;fill-rule:nonzero;fill:rgb(71.398926%,72.198486%,72.898865%);fill-opacity:1;" d="M 284.65625 33.488281 L 284.65625 34.183594 C 283.6875 34.183594 283.011719 34.3125 282.628906 34.570313 C 282.242188 34.84375 282.050781 35.335938 282.050781 36.046875 L 282.050781 51.367188 C 282.050781 51.953125 282.242188 52.371094 282.628906 52.628906 C 283.027344 52.882813 283.703125 53.011719 284.65625 53.011719 L 284.65625 53.742188 L 277.730469 53.742188 L 277.730469 53.011719 C 278.660156 53.011719 279.328125 52.882813 279.730469 52.628906 C 280.132813 52.371094 280.332031 51.953125 280.332031 51.367188 L 280.332031 36.046875 C 280.332031 35.335938 280.132813 34.84375 279.730469 34.570313 C 279.328125 34.3125 278.660156 34.183594 277.730469 34.183594 L 277.730469 33.488281 L 284.65625 33.488281 "/>
<path style=" stroke:none;fill-rule:nonzero;fill:rgb(71.398926%,72.198486%,72.898865%);fill-opacity:1;" d="M 292.269531 53.046875 C 293.308594 53.046875 294.050781 52.964844 294.488281 52.800781 C 295.128906 52.5625 295.449219 52.136719 295.449219 51.515625 L 295.449219 35.808594 C 295.449219 35.207031 295.273438 34.796875 294.929688 34.578125 C 294.578125 34.339844 293.96875 34.222656 293.089844 34.222656 C 291.464844 34.222656 290.109375 34.660156 289.03125 35.535156 C 288.339844 36.085938 287.589844 37.019531 286.785156 38.335938 L 286.371094 38.140625 L 288.019531 33.488281 L 304.652344 33.488281 L 306.296875 38.335938 L 305.828125 38.496094 L 305.527344 38.03125 C 304.761719 36.714844 304.09375 35.820313 303.527344 35.347656 C 302.632813 34.597656 301.460938 34.222656 300.019531 34.222656 C 299.011719 34.222656 298.289063 34.339844 297.851563 34.578125 C 297.394531 34.8125 297.164063 35.226563 297.164063 35.808594 L 297.164063 51.515625 C 297.164063 52.152344 297.433594 52.582031 297.960938 52.800781 C 298.382813 52.964844 299.175781 53.046875 300.347656 53.046875 L 300.347656 53.777344 L 292.269531 53.777344 L 292.269531 53.046875 "/>
<path style=" stroke:none;fill-rule:nonzero;fill:rgb(71.398926%,72.198486%,72.898865%);fill-opacity:1;" d="M 314.867188 33.488281 L 314.867188 34.183594 C 313.898438 34.183594 313.222656 34.3125 312.839844 34.570313 C 312.453125 34.84375 312.265625 35.335938 312.265625 36.046875 L 312.265625 51.367188 C 312.265625 51.953125 312.453125 52.371094 312.839844 52.628906 C 313.242188 52.882813 313.917969 53.011719 314.867188 53.011719 L 314.867188 53.742188 L 307.941406 53.742188 L 307.941406 53.011719 C 308.871094 53.011719 309.539063 52.882813 309.941406 52.628906 C 310.34375 52.371094 310.546875 51.953125 310.546875 51.367188 L 310.546875 36.046875 C 310.546875 35.335938 310.34375 34.84375 309.941406 34.570313 C 309.539063 34.3125 308.871094 34.183594 307.941406 34.183594 L 307.941406 33.488281 L 314.867188 33.488281 "/>
<path style=" stroke:none;fill-rule:nonzero;fill:rgb(71.398926%,72.198486%,72.898865%);fill-opacity:1;" d="M 151.5625 86.53125 C 153.035156 86.53125 154.082031 86.417969 154.699219 86.183594 C 155.601563 85.847656 156.054688 85.242188 156.054688 84.367188 L 156.054688 62.1875 C 156.054688 61.339844 155.8125 60.757813 155.320313 60.449219 C 154.828125 60.113281 153.964844 59.945313 152.726563 59.945313 C 150.429688 59.945313 148.519531 60.566406 146.996094 61.804688 C 146.015625 62.578125 144.957031 63.894531 143.820313 65.753906 L 143.238281 65.484375 L 145.5625 58.914063 L 169.050781 58.914063 L 171.375 65.753906 L 170.714844 65.988281 L 170.289063 65.328125 C 169.203125 63.46875 168.265625 62.203125 167.464844 61.535156 C 166.199219 60.476563 164.546875 59.945313 162.507813 59.945313 C 161.089844 59.945313 160.070313 60.113281 159.449219 60.449219 C 158.804688 60.78125 158.480469 61.363281 158.480469 62.1875 L 158.480469 84.367188 C 158.480469 85.269531 158.855469 85.875 159.601563 86.183594 C 160.195313 86.417969 161.320313 86.53125 162.972656 86.53125 L 162.972656 87.566406 L 151.5625 87.566406 L 151.5625 86.53125 "/>
<path style=" stroke:none;fill-rule:nonzero;fill:rgb(71.398926%,72.198486%,72.898865%);fill-opacity:1;" d="M 167.316406 87.269531 C 168.175781 87.269531 168.796875 87.113281 169.179688 86.800781 C 169.582031 86.511719 169.78125 86.027344 169.78125 85.347656 L 169.78125 70.296875 C 169.78125 69.65625 169.582031 69.191406 169.179688 68.898438 C 168.796875 68.625 168.175781 68.488281 167.316406 68.488281 L 167.316406 67.804688 L 181.847656 67.804688 L 183.820313 72.601563 L 183.417969 72.875 L 182.707031 71.941406 C 181.882813 70.828125 181.160156 70.050781 180.539063 69.613281 C 179.460938 68.863281 178.128906 68.488281 176.535156 68.488281 L 173.769531 68.488281 C 173.019531 68.488281 172.472656 68.625 172.121094 68.898438 C 171.757813 69.191406 171.574219 69.65625 171.574219 70.296875 L 171.574219 77.070313 L 175.8125 77.070313 C 176.835938 77.070313 177.582031 76.8125 178.058594 76.300781 C 178.585938 75.753906 178.851563 74.839844 178.851563 73.558594 L 179.507813 73.558594 L 179.507813 81.429688 L 178.851563 81.429688 C 178.851563 80.203125 178.585938 79.300781 178.058594 78.714844 C 177.546875 78.148438 176.796875 77.863281 175.8125 77.863281 L 171.574219 77.863281 L 171.574219 85.347656 C 171.574219 86.007813 171.757813 86.492188 172.121094 86.800781 C 172.488281 87.113281 173.054688 87.269531 173.820313 87.269531 L 176.421875 87.269531 C 178.03125 87.269531 179.410156 86.921875 180.5625 86.226563 C 181.652344 85.550781 182.777344 84.40625 183.929688 82.800781 L 184.441406 83.074219 L 182.550781 87.980469 L 167.316406 87.980469 L 167.316406 87.269531 "/>
<path style=" stroke:none;fill-rule:nonzero;fill:rgb(71.398926%,72.198486%,72.898865%);fill-opacity:1;" d="M 186.289063 87.324219 C 187.203125 87.324219 187.824219 87.195313 188.152344 86.941406 C 188.480469 86.703125 188.644531 86.300781 188.644531 85.734375 L 188.644531 70.414063 C 188.644531 69.628906 188.488281 69.117188 188.179688 68.882813 C 187.867188 68.625 187.238281 68.496094 186.289063 68.496094 L 186.289063 67.804688 L 192.851563 67.804688 L 192.851563 68.496094 C 191.917969 68.496094 191.277344 68.617188 190.929688 68.855469 C 190.601563 69.109375 190.4375 69.605469 190.4375 70.335938 L 190.4375 79.027344 L 200.03125 70.390625 C 200.453125 69.914063 200.535156 69.492188 200.277344 69.128906 C 199.988281 68.707031 199.28125 68.496094 198.167969 68.496094 L 198.167969 67.804688 L 204.777344 67.804688 L 204.777344 68.496094 C 204.136719 68.496094 203.578125 68.636719 203.105469 68.910156 C 202.699219 69.144531 202.117188 69.601563 201.347656 70.277344 L 195.675781 75.402344 L 202.691406 85.734375 C 203.132813 86.429688 203.507813 86.855469 203.816406 87.023438 C 204.164063 87.222656 204.8125 87.324219 205.761719 87.324219 L 205.761719 88.054688 L 198.523438 88.054688 L 198.523438 87.324219 C 199.550781 87.324219 200.226563 87.25 200.554688 87.105469 C 200.992188 86.921875 201.066406 86.574219 200.773438 86.0625 L 194.410156 76.523438 L 190.4375 80.167969 L 190.4375 85.761719 C 190.4375 86.328125 190.59375 86.71875 190.902344 86.941406 C 191.25 87.195313 191.898438 87.324219 192.851563 87.324219 L 192.851563 88.054688 L 186.289063 88.054688 L 186.289063 87.324219 "/>
<path style=" stroke:none;fill-rule:nonzero;fill:rgb(71.398926%,72.198486%,72.898865%);fill-opacity:1;" d="M 207.125 87.324219 C 208.019531 87.324219 208.648438 87.175781 209.015625 86.886719 C 209.398438 86.59375 209.59375 86.101563 209.59375 85.40625 L 209.59375 70.441406 C 209.59375 69.730469 209.398438 69.230469 209.015625 68.9375 C 208.632813 68.644531 208.003906 68.496094 207.125 68.496094 L 207.125 67.804688 L 210.714844 67.804688 L 223.519531 84.726563 L 223.519531 70.0625 C 223.519531 69.511719 223.316406 69.109375 222.917969 68.855469 C 222.519531 68.617188 221.890625 68.496094 221.035156 68.496094 L 221.035156 67.804688 L 226.855469 67.804688 L 226.855469 68.496094 C 226.015625 68.496094 225.382813 68.625 224.964844 68.882813 C 224.5625 69.136719 224.359375 69.53125 224.359375 70.0625 L 224.359375 88.128906 L 223.886719 88.128906 L 210.433594 70.242188 L 210.433594 85.40625 C 210.433594 86.117188 210.605469 86.609375 210.957031 86.886719 C 211.324219 87.175781 211.980469 87.324219 212.917969 87.324219 L 212.917969 88.054688 L 207.125 88.054688 L 207.125 87.324219 "/>
<path style=" stroke:none;fill-rule:nonzero;fill:rgb(71.398926%,72.198486%,72.898865%);fill-opacity:1;" d="M 244.878906 70.621094 C 246.355469 72.597656 247.097656 75.03125 247.097656 77.925781 C 247.097656 80.796875 246.355469 83.214844 244.878906 85.171875 C 243.230469 87.386719 240.980469 88.492188 238.128906 88.492188 C 235.363281 88.492188 233.183594 87.386719 231.570313 85.171875 C 230.128906 83.195313 229.40625 80.777344 229.40625 77.925781 C 229.40625 75.050781 230.128906 72.617188 231.570313 70.621094 C 233.183594 68.425781 235.363281 67.328125 238.128906 67.328125 C 240.980469 67.328125 243.230469 68.425781 244.878906 70.621094 M 233.003906 71.15625 C 231.871094 73 231.304688 75.265625 231.304688 77.953125 C 231.304688 80.601563 231.871094 82.847656 233.003906 84.691406 C 234.261719 86.738281 235.96875 87.761719 238.121094 87.761719 C 240.367188 87.761719 242.140625 86.738281 243.4375 84.691406 C 244.585938 82.867188 245.160156 80.617188 245.160156 77.953125 C 245.160156 75.246094 244.585938 72.980469 243.4375 71.15625 C 242.140625 69.089844 240.367188 68.058594 238.121094 68.058594 C 235.96875 68.058594 234.261719 69.089844 233.003906 71.15625 "/>
<path style=" stroke:none;fill-rule:nonzero;fill:rgb(71.398926%,72.198486%,72.898865%);fill-opacity:1;" d="M 249.566406 87.324219 C 250.570313 87.324219 251.273438 87.175781 251.675781 86.886719 C 252.042969 86.613281 252.226563 86.171875 252.226563 85.570313 L 252.226563 70.277344 C 252.226563 69.585938 252.042969 69.117188 251.675781 68.882813 C 251.292969 68.625 250.589844 68.496094 249.566406 68.496094 L 249.566406 67.804688 L 256.894531 67.804688 L 256.894531 68.496094 C 255.726563 68.496094 254.9375 68.625 254.535156 68.882813 C 254.1875 69.117188 254.015625 69.585938 254.015625 70.277344 L 254.015625 85.570313 C 254.015625 86.171875 254.160156 86.613281 254.453125 86.886719 C 254.765625 87.175781 255.304688 87.324219 256.070313 87.324219 L 258.976563 87.324219 C 260.292969 87.324219 261.527344 86.921875 262.679688 86.121094 C 263.8125 85.355469 264.769531 84.285156 265.558594 82.902344 L 266.105469 83.175781 L 264.050781 88.054688 L 249.566406 88.054688 L 249.566406 87.324219 "/>
<path style=" stroke:none;fill-rule:nonzero;fill:rgb(71.398926%,72.198486%,72.898865%);fill-opacity:1;" d="M 283.480469 70.621094 C 284.960938 72.597656 285.699219 75.03125 285.699219 77.925781 C 285.699219 80.796875 284.960938 83.214844 283.480469 85.171875 C 281.832031 87.386719 279.582031 88.492188 276.730469 88.492188 C 273.96875 88.492188 271.78125 87.386719 270.171875 85.171875 C 268.730469 83.195313 268.007813 80.777344 268.007813 77.925781 C 268.007813 75.050781 268.730469 72.617188 270.171875 70.621094 C 271.78125 68.425781 273.96875 67.328125 276.730469 67.328125 C 279.582031 67.328125 281.832031 68.425781 283.480469 70.621094 M 271.605469 71.15625 C 270.476563 73 269.90625 75.265625 269.90625 77.953125 C 269.90625 80.601563 270.476563 82.847656 271.605469 84.691406 C 272.863281 86.738281 274.570313 87.761719 276.726563 87.761719 C 278.96875 87.761719 280.742188 86.738281 282.035156 84.691406 C 283.1875 82.867188 283.761719 80.617188 283.761719 77.953125 C 283.761719 75.246094 283.1875 72.980469 282.035156 71.15625 C 280.742188 69.089844 278.96875 68.058594 276.726563 68.058594 C 274.570313 68.058594 272.863281 69.089844 271.605469 71.15625 "/>
<path style=" stroke:none;fill-rule:nonzero;fill:rgb(71.398926%,72.198486%,72.898865%);fill-opacity:1;" d="M 307.148438 79.683594 C 306.269531 79.683594 305.65625 79.839844 305.3125 80.152344 C 304.980469 80.460938 304.816406 80.972656 304.816406 81.6875 L 304.816406 88.054688 L 303.527344 88.054688 L 303.0625 86.65625 L 302.761719 86.820313 C 301.921875 87.351563 301.226563 87.726563 300.679688 87.945313 C 299.710938 88.335938 298.6875 88.53125 297.605469 88.53125 C 294.863281 88.53125 292.71875 87.625 291.164063 85.8125 C 289.554688 83.945313 288.753906 81.304688 288.753906 77.902344 C 288.753906 74.804688 289.585938 72.269531 291.246094 70.296875 C 292.910156 68.316406 295.066406 67.328125 297.71875 67.328125 C 298.484375 67.328125 299.234375 67.390625 299.964844 67.519531 C 300.566406 67.609375 301.070313 67.738281 301.472656 67.902344 L 303.746094 67.328125 L 305.695313 72.398438 L 305.230469 72.59375 C 304.1875 71.246094 303.226563 70.242188 302.351563 69.589844 C 300.960938 68.570313 299.464844 68.058594 297.855469 68.058594 C 295.808594 68.058594 294.097656 68.972656 292.726563 70.800781 C 291.355469 72.644531 290.671875 74.96875 290.671875 77.765625 C 290.671875 80.980469 291.382813 83.503906 292.808594 85.332031 C 294.089844 86.976563 295.6875 87.796875 297.605469 87.796875 C 299.050781 87.796875 300.339844 87.351563 301.472656 86.457031 C 302.53125 85.613281 303.0625 84.738281 303.0625 83.824219 L 303.0625 81.683594 C 303.0625 80.953125 302.863281 80.441406 302.460938 80.148438 C 302.003906 79.839844 301.171875 79.683594 299.964844 79.683594 L 299.964844 78.914063 L 307.148438 78.914063 L 307.148438 79.683594 "/>
<path style=" stroke:none;fill-rule:nonzero;fill:rgb(71.398926%,72.198486%,72.898865%);fill-opacity:1;" d="M 315.984375 67.804688 L 315.984375 68.496094 C 315.015625 68.496094 314.339844 68.625 313.957031 68.882813 C 313.570313 69.15625 313.382813 69.648438 313.382813 70.359375 L 313.382813 85.679688 C 313.382813 86.265625 313.570313 86.683594 313.957031 86.941406 C 314.359375 87.195313 315.035156 87.324219 315.984375 87.324219 L 315.984375 88.054688 L 309.058594 88.054688 L 309.058594 87.324219 C 309.988281 87.324219 310.65625 87.195313 311.058594 86.941406 C 311.460938 86.683594 311.664063 86.265625 311.664063 85.679688 L 311.664063 70.359375 C 311.664063 69.648438 311.460938 69.15625 311.058594 68.882813 C 310.65625 68.625 309.988281 68.496094 309.058594 68.496094 L 309.058594 67.804688 L 315.984375 67.804688 "/>
<path style=" stroke:none;fill-rule:nonzero;fill:rgb(71.398926%,72.198486%,72.898865%);fill-opacity:1;" d="M 145.519531 120.480469 C 146.761719 120.480469 147.636719 120.277344 148.15625 119.863281 C 148.644531 119.449219 148.890625 118.753906 148.890625 117.773438 L 148.890625 96.089844 C 148.890625 95.289063 148.632813 94.722656 148.117188 94.386719 C 147.601563 94.050781 146.734375 93.882813 145.519531 93.882813 L 145.519531 92.914063 L 152.296875 92.914063 L 161.609375 117.808594 L 170.847656 92.914063 L 177.8125 92.914063 L 177.8125 93.882813 C 176.46875 93.882813 175.554688 94.050781 175.0625 94.386719 C 174.648438 94.722656 174.441406 95.289063 174.441406 96.089844 L 174.441406 117.773438 C 174.441406 118.675781 174.671875 119.34375 175.140625 119.785156 C 175.679688 120.25 176.570313 120.480469 177.8125 120.480469 L 177.8125 121.515625 L 168.167969 121.515625 L 168.167969 120.480469 C 169.5625 120.480469 170.558594 120.25 171.148438 119.785156 C 171.691406 119.371094 171.964844 118.699219 171.964844 117.769531 L 171.964844 94.257813 L 171.539063 94.257813 L 161.246094 121.773438 L 160.628906 121.773438 L 150.488281 94.851563 L 150.027344 94.851563 L 150.027344 117.773438 C 150.027344 118.753906 150.285156 119.449219 150.800781 119.863281 C 151.34375 120.277344 152.347656 120.480469 153.816406 120.480469 L 153.816406 121.515625 L 145.519531 121.515625 L 145.519531 120.480469 "/>
<path style=" stroke:none;fill-rule:nonzero;fill:rgb(71.398926%,72.198486%,72.898865%);fill-opacity:1;" d="M 197.226563 118.074219 C 197.464844 118.824219 197.8125 119.34375 198.269531 119.636719 C 198.667969 119.929688 199.265625 120.078125 200.050781 120.078125 L 200.050781 120.808594 L 192.921875 120.808594 L 192.921875 120.078125 C 194.128906 120.078125 194.902344 119.960938 195.25 119.722656 C 195.652344 119.449219 195.71875 118.933594 195.441406 118.1875 L 193.632813 113.421875 L 185.160156 113.421875 L 183.652344 117.53125 C 183.308594 118.550781 183.308594 119.238281 183.652344 119.585938 C 183.980469 119.914063 184.777344 120.078125 186.039063 120.078125 L 186.039063 120.808594 L 179.925781 120.808594 L 179.925781 120.078125 C 180.710938 120.078125 181.285156 119.910156 181.652344 119.582031 C 182.035156 119.21875 182.445313 118.421875 182.886719 117.195313 L 188.753906 100.714844 L 190.316406 100.082031 L 197.226563 118.074219 M 185.4375 112.582031 L 193.304688 112.582031 L 189.300781 101.945313 L 185.4375 112.582031 "/>
<path style=" stroke:none;fill-rule:nonzero;fill:rgb(71.398926%,72.198486%,72.898865%);fill-opacity:1;" d="M 201.402344 120.078125 C 202.425781 120.078125 203.136719 119.910156 203.539063 119.582031 C 203.925781 119.289063 204.113281 118.785156 204.113281 118.074219 L 204.113281 102.960938 C 204.113281 102.320313 203.925781 101.882813 203.539063 101.644531 C 203.15625 101.40625 202.441406 101.285156 201.402344 101.285156 L 201.402344 100.554688 L 210.53125 100.554688 C 212.632813 100.554688 214.277344 101.023438 215.464844 101.957031 C 216.601563 102.851563 217.164063 104.042969 217.164063 105.527344 C 217.164063 106.933594 216.71875 108.097656 215.820313 109.011719 C 214.855469 110 213.472656 110.550781 211.683594 110.660156 L 216.234375 118.761719 C 216.507813 119.273438 216.871094 119.617188 217.328125 119.800781 C 217.730469 119.984375 218.324219 120.078125 219.113281 120.078125 L 219.113281 120.808594 L 215.300781 120.808594 L 209.765625 110.753906 L 205.871094 110.753906 L 205.871094 118.082031 C 205.871094 118.773438 206.070313 119.277344 206.472656 119.585938 C 206.875 119.914063 207.570313 120.078125 208.558594 120.078125 L 208.558594 120.808594 L 201.402344 120.808594 L 201.402344 120.078125 M 211.058594 110.023438 C 212.484375 110.023438 213.5625 109.554688 214.296875 108.621094 C 214.917969 107.835938 215.230469 106.808594 215.230469 105.546875 C 215.230469 104.207031 214.800781 103.164063 213.9375 102.414063 C 213.097656 101.664063 211.925781 101.285156 210.425781 101.285156 L 207.929688 101.285156 C 207.214844 101.285156 206.703125 101.40625 206.390625 101.644531 C 206.042969 101.917969 205.871094 102.359375 205.871094 102.964844 L 205.871094 110.023438 L 211.058594 110.023438 "/>
<path style=" stroke:none;fill-rule:nonzero;fill:rgb(71.398926%,72.198486%,72.898865%);fill-opacity:1;" d="M 236.761719 118.074219 C 236.996094 118.824219 237.34375 119.34375 237.800781 119.636719 C 238.203125 119.929688 238.796875 120.078125 239.582031 120.078125 L 239.582031 120.808594 L 232.453125 120.808594 L 232.453125 120.078125 C 233.660156 120.078125 234.4375 119.960938 234.785156 119.722656 C 235.1875 119.449219 235.25 118.933594 234.976563 118.1875 L 233.167969 113.421875 L 224.695313 113.421875 L 223.1875 117.53125 C 222.839844 118.550781 222.839844 119.238281 223.1875 119.585938 C 223.519531 119.914063 224.3125 120.078125 225.574219 120.078125 L 225.574219 120.808594 L 219.460938 120.808594 L 219.460938 120.078125 C 220.246094 120.078125 220.820313 119.910156 221.1875 119.582031 C 221.570313 119.21875 221.980469 118.421875 222.421875 117.195313 L 228.289063 100.714844 L 229.851563 100.082031 L 236.761719 118.074219 M 224.972656 112.582031 L 232.839844 112.582031 L 228.835938 101.945313 L 224.972656 112.582031 "/>
</g>
</svg>
